<svg t="1699778361674" class="icon" viewBox="0 0 1024 1024" version="1.1" xmlns="http://www.w3.org/2000/svg" p-id="2213" width="200" height="200"><path d="M341.333369 963.893346c-38.773325 0-76.575984-7.359998-112.362643-21.877329a297.045271 297.045271 0 0 1-98.826646-65.599986 296.554605 296.554605 0 0 1-65.599987-98.837313C50.026763 741.802725 42.666764 704.000067 42.666764 665.226741s7.359998-76.586651 21.877329-112.37331a296.895938 296.895938 0 0 1 65.599987-98.826646l0.074666-0.074666L523.775998 62.293534a211.594623 211.594623 0 0 1 70.378652-46.709324A211.829289 211.829289 0 0 1 674.154633 0.000213c27.594661 0 54.495989 5.247999 79.999983 15.583997A211.647956 211.647956 0 0 1 824.533268 62.293534a211.914623 211.914623 0 0 1 62.293321 150.389302 211.914623 211.914623 0 0 1-62.293321 150.389302L431.840017 755.733389a127.541307 127.541307 0 0 1-90.517315 37.514659 127.583973 127.583973 0 0 1-90.517314-37.514659 126.975974 126.975974 0 0 1-28.117328-42.357324A127.999973 127.999973 0 0 1 213.333396 665.226741c0-16.607997 3.157333-32.81066 9.375998-48.149323a127.327973 127.327973 0 0 1 28.117327-42.389324l362.037258-362.026592a42.666658 42.666658 0 0 1 60.341321 60.341321l-362.037258 362.026591c-8.063998 8.085332-12.501331 18.805329-12.501331 30.197327s4.437332 22.101329 12.501331 30.165327c8.053332 8.063998 18.773329 12.501331 30.165327 12.501331s22.111995-4.437332 30.165327-12.501331L764.191947 302.72015c24.042662-24.053328 37.290659-56.031988 37.290659-90.037314s-13.247997-65.994653-37.290659-90.037315A126.50664 126.50664 0 0 0 674.143966 85.333529a126.44264 126.44264 0 0 0-90.037314 37.301325l-0.074667 0.074667-393.578585 391.690585a211.989289 211.989289 0 0 0-46.84799 70.527985A213.194622 213.194622 0 0 0 128.00008 665.226741c0 27.722661 5.258666 54.741322 15.615997 80.287984a211.861289 211.861289 0 0 0 46.87999 70.538652A212.565289 212.565289 0 0 0 341.333369 878.549364a212.586622 212.586622 0 0 0 150.847968-62.495987l392.213252-392.213252a42.666658 42.666658 0 1 1 60.991987 59.669321l-0.661333 0.672-392.223918 392.213251a296.810605 296.810605 0 0 1-98.826646 65.58932A296.714605 296.714605 0 0 1 341.333369 963.893346z" p-id="2214" fill="#707070"></path></svg>